#!OML:ASF H:\Male1\Project 1\Capture day 1\Session 1\Male1.ASF
:FULLY-SPECIFIED
:DEGREES
346
root 20.3685 15.3833 -0.0039574 -178.281 -85.7141 178.634
lowerback 7.22386 2.32397 -2.84767
upperback 5.40579 2.7391 -1.89038
thorax 1.49746 1.2358 -0.514403
lowerneck 0.183175 3.92641 8.44661
upperneck -13.1346 4.71508 -6.51757
head -3.5664 2.14553 -3.50705
rclavicle -3.10104e-014 8.74653e-015
rhumerus -29.3377 37.2521 -93.3327
rradius 81.597
rwrist -50.401
rhand -22.4011 -3.18655
rfingers 7.12502
rthumb 4.02147 -33.1283
lclavicle -3.10104e-014 8.74653e-015
lhumerus -24.5475 -30.6007 90.3061
lradius 66.9858
lwrist 10.2619
lhand -32.7406 9.91173
lfingers 7.12502
lthumb -5.96377 39.8078
rfemur -8.17433 11.0139 17.0572
rtibia 26.723
rfoot -25.4075 -27.9022
rtoes -26.8089
lfemur -9.17161 -15.4378 -14.7551
ltibia 25.7626
lfoot -19.4848 23.4815
ltoes -13.4018
347
root 20.3755 15.3828 -0.00536548 -179.282 -85.6935 179.685
lowerback 7.29459 2.30299 -2.83938
upperback 5.45342 2.70765 -1.8146
thorax 1.50482 1.21788 -0.440998
lowerneck 0.431132 3.96423 8.44752
upperneck -13.6892 4.73937 -6.71856
head -3.76533 2.15791 -3.58789
rclavicle 1.33186e-014 2.38542e-015
rhumerus -28.6919 37.51 -93.1225
rradius 82.2999
rwrist -52.0284
rhand -22.5617 -3.6781
rfingers 7.12502
rthumb 3.86632 -33.6228
lclavicle 1.33186e-014 2.38542e-015
lhumerus -24.0738 -30.9948 90.1039
lradius 68.5616
lwrist 10.9519
lhand -34.4077 12.2963
lfingers 7.12502
lthumb -7.57313 42.1407
rfemur -8.32485 10.982 17.1316
rtibia 26.7976
rfoot -25.2787 -27.9216
rtoes -26.9085
lfemur -9.30363 -15.2344 -14.6127
ltibia 25.8301
lfoot -19.3581 23.3429
ltoes -13.688
348
root 20.3826 15.3825 -0.00679487 -180.139 -85.6812 180.588
lowerback 7.37911 2.27155 -2.84947
upperback 5.49492 2.66052 -1.73917
thorax 1.49775 1.19178 -0.357352
lowerneck 0.644615 4.00982 8.42765
upperneck -14.1939 4.77706 -6.86188
head -3.94538 2.17602 -3.64659
rclavicle 2.08724e-014 -2.94201e-014
rhumerus -27.9886 37.7898 -92.9388
rradius 83.0181
rwrist -53.2785
rhand -22.8605 -4.12698
rfingers 7.12502
rthumb 3.57783 -34.0767
lclavicle 2.08724e-014 -2.94201e-014
lhumerus -23.5374 -31.232 89.8507
lradius 70.2525
lwrist 10.8961
lhand -35.9298 14.1071
lfingers 7.12502
lthumb -9.04206 43.8933
rfemur -8.47113 10.9013 17.1905
rtibia 26.8714
rfoot -25.0872 -27.9407
rtoes -27.1744
lfemur -9.43414 -15.0567 -14.4862
ltibia 25.8965
lfoot -19.2235 23.2063
ltoes -13.9472
349
root 20.3895 15.3826 -0.00791977 -180.599 -85.681 181.095
lowerback 7.47344 2.2303 -2.88098
upperback 5.52739 2.59853 -1.67838
thorax 1.47611 1.15808 -0.276328
lowerneck 0.835451 4.06713 8.40203
upperneck -14.6681 4.83535 -6.9481
head -4.11338 2.20212 -3.68651
rclavicle -2.70347e-014 1.11319e-014
rhumerus -27.2462 38.0605 -92.8017
rradius 83.7722
rwrist -54.069
rhand -23.2998 -4.49949
rfingers 7.12502
rthumb 3.15361 -34.4559
lclavicle -2.70347e-014 1.11319e-014
lhumerus -22.9331 -31.3563 89.5467
lradius 72.0583
lwrist 10.2163
lhand -37.4431 14.9112
lfingers 7.12502
lthumb -10.5021 44.6288
rfemur -8.61483 10.7639 17.2086
rtibia 26.9458
rfoot -24.8788 -27.9152
rtoes -27.5
lfemur -9.5677 -14.9267 -14.3999
ltibia 25.9654
lfoot -19.1085 23.0961
ltoes -14.148
350
root 20.3963 15.3828 -0.00860999 -180.643 -85.6885 181.189
lowerback 7.57999 2.1849 -2.92243
upperback 5.54703 2.52968 -1.64119
thorax 1.43545 1.12137 -0.214142
lowerneck 1.02376 4.11944 8.37324
upperneck -15.1245 4.89562 -6.96325
head -4.27851 2.22586 -3.70404
rclavicle -1.98785e-016 -3.97569e-015
rhumerus -26.482 38.2774 -92.7204
rradius 84.5933
rwrist -54.4319
rhand -23.8412 -4.77937
rfingers 7.12502
rthumb 2.63069 -34.7429
lclavicle -1.98785e-016 -3.97569e-015
lhumerus -22.2631 -31.4266 89.1948
lradius 74.0273
lwrist 9.06437
lhand -39.1718 14.3538
lfingers 7.12502
lthumb -12.1693 43.9798
rfemur -8.75947 10.5803 17.1836
rtibia 27.0227
rfoot -24.695 -27.8192
rtoes -27.7763
lfemur -9.71077 -14.8378 -14.3547
ltibia 26.0468
lfoot -19.0264 23.0183
ltoes -14.268
351
root 20.4034 15.3831 -0.00888217 -180.482 -85.6989 181.084
lowerback 7.70736 2.1408 -2.94924
upperback 5.54622 2.46229 -1.62811
thorax 1.36393 1.08688 -0.185891
lowerneck 1.21224 4.1635 8.3675
upperneck -15.5618 4.95295 -6.93323
head -4.43971 2.24457 -3.71125
rclavicle 1.11319e-014 -4.69132e-014
rhumerus -25.721 38.3928 -92.7015
rradius 85.5145
rwrist -54.4584
rhand -24.4078 -4.9516
rfingers 7.12502
rthumb 2.08354 -34.9212
lclavicle 1.11319e-014 -4.69132e-014
lhumerus -21.5218 -31.4742 88.793
lradius 76.1931
lwrist 7.58091
lhand -40.7003 13.1524
lfingers 7.12502
lthumb -13.6428 42.6853
rfemur -8.91254 10.3585 17.1337
rtibia 27.1069
rfoot -24.5487 -27.6446
rtoes -27.9506
lfemur -9.87752 -14.7563 -14.328
ltibia 26.156
lfoot -18.9681 22.9485
ltoes -14.3362
352
root 20.411 15.3831 -0.00895751 -180.274 -85.7105 180.944
lowerback 7.85631 2.10421 -2.94719
upperback 5.51977 2.40567 -1.63621
thorax 1.25586 1.05984 -0.197185
lowerneck 1.4101 4.18627 8.38569
upperneck -15.9841 4.99037 -6.86332
head -4.60089 2.2499 -3.70969
rclavicle -6.36111e-015 -1.27222e-014
rhumerus -24.9696 38.3685 -92.7356
rradius 86.5638
rwrist -54.2788
rhand -24.938 -4.99711
rfingers 7.12502
rthumb 1.5714 -34.9711
lclavicle -6.36111e-015 -1.27222e-014
lhumerus -20.7091 -31.5342 88.3508
lradius 78.5523
lwrist 5.72183
lhand -42.1011 11.3868
lfingers 7.12502
lthumb -14.9926 40.8241
rfemur -9.08667 10.0985 17.0738
rtibia 27.2066
rfoot -24.4314 -27.398
rtoes -28.0381
lfemur -10.089 -14.6425 -14.2983
ltibia 26.3085
lfoot -18.9186 22.8565
ltoes -14.4003
353
root 20.4199 15.383 -0.00917245 -180.001 -85.7268 180.749
lowerback 8.02686 2.07871 -2.92817
upperback 5.47317 2.36387 -1.65745
thorax 1.11595 1.04158 -0.233332
lowerneck 1.60711 4.19056 8.42318
upperneck -16.3928 5.00775 -6.77603
head -4.76007 2.24291 -3.70518
rclavicle 7.55382e-015 8.74653e-015
rhumerus -24.1932 38.2066 -92.7865
rradius 87.7522
rwrist -54.014
rhand -25.4243 -4.93785
rfingers 7.12502
rthumb 1.10178 -34.9147
lclavicle 7.55382e-015 8.74653e-015
lhumerus -19.7877 -31.6233 87.8649
lradius 81.0743
lwrist 3.52905
lhand -43.3181 9.68091
lfingers 7.12502
lthumb -16.1647 39.0269
rfemur -9.28957 9.79885 17.006
rtibia 27.3342
rfoot -24.3227 -27.1082
rtoes -28.0892
lfemur -10.3546 -14.4753 -14.2637
ltibia 26.512
lfoot -18.8487 22.7082
ltoes -14.382
354
root 20.4302 15.3828 -0.00977696 -179.679 -85.7508 180.504
lowerback 8.2 2.06057 -2.91651
upperback 5.42677 2.33137 -1.67183
thorax 0.974151 1.02767 -0.258886
lowerneck 1.78362 4.1886 8.44906
upperneck -16.7847 5.01591 -6.68555
head -4.91227 2.2312 -3.69663
rclavicle 8.15017e-015 -7.95139e-016
rhumerus -23.3272 37.9602 -92.7983
rradius 89.0734
rwrist -53.7672
rhand -25.8991 -4.80831
rfingers 7.12502
rthumb 0.643154 -34.7871
lclavicle 8.15017e-015 -7.95139e-016
lhumerus -18.6835 -31.7194 87.3214
lradius 83.7122
lwrist 1.16783
lhand -44.359 8.17178
lfingers 7.12502
lthumb -17.1668 37.4334
rfemur -9.52346 9.46229 16.9361
rtibia 27.5062
rfoot -24.2097 -26.7996
rtoes -28.1301
lfemur -10.6659 -14.2524 -14.2244
ltibia 26.7589
lfoot -18.7452 22.5081
ltoes -14.3015
355
root 20.4424 15.3823 -0.0108917 -179.327 -85.7881 180.215
lowerback 8.3515 2.04051 -2.93655
upperback 5.40994 2.29524 -1.66029
thorax 0.872814 1.00973 -0.238439
lowerneck 1.94618 4.19728 8.4287
upperneck -17.1893 5.03264 -6.60294
head -5.06662 2.22569 -3.68327
rclavicle -1.25234e-014 1.35174e-014
rhumerus -22.2939 37.7066 -92.7201
rradius 90.4999
rwrist -53.6093
rhand -26.4435 -4.6268
rfingers 7.12502
rthumb 0.117384 -34.6065
lclavicle -1.25234e-014 1.35174e-014
lhumerus -17.3216 -31.7928 86.6952
lradius 86.3938
lwrist -1.24517
lhand -45.257 6.37304
lfingers 7.12502
lthumb -18.031 35.5572
rfemur -9.78301 9.10166 16.8711
rtibia 27.7384
rfoot -24.0702 -26.5136
rtoes -28.2044
lfemur -10.9972 -13.993 -14.1851
ltibia 27.0309
lfoot -18.5978 22.2661
ltoes -14.1365
356
root 20.4567 15.3817 -0.0123434 -178.699 -85.8491 179.627
lowerback 8.47334 2.00736 -3.01086
upperback 5.43504 2.23919 -1.6241
thorax 0.828837 0.978628 -0.158952
lowerneck 2.10205 4.22451 8.35075
upperneck -17.6184 5.06629 -6.53607
head -5.22738 2.23169 -3.66657
rclavicle -1.90833e-014 7.95139e-015
rhumerus -21.0408 37.5013 -92.5414
rradius 91.9845
rwrist -53.4923
rhand -27.1429 -4.4548
rfingers 7.12502
rthumb -0.558062 -34.4338
lclavicle -1.90833e-014 7.95139e-015
lhumerus -15.6467 -31.8344 85.9408
lradius 89.0856
lwrist -3.48539
lhand -45.9745 4.51906
lfingers 7.12502
lthumb -18.7212 33.6382
rfemur -10.0691 8.72737 16.7918
rtibia 28.038
rfoot -23.8806 -26.2896
rtoes -28.3698
lfemur -11.3321 -13.7354 -14.1715
ltibia 27.3145
lfoot -18.4081 21.9964
ltoes -13.8613
357
root 20.4732 15.3808 -0.013346 -177.61 -85.9358 178.557
lowerback 8.58375 1.95435 -3.1211
upperback 5.48668 2.15428 -1.58532
thorax 0.818284 0.931093 -0.0534915
lowerneck 2.25515 4.27905 8.25714
upperneck -18.076 5.1274 -6.51306
head -5.39373 2.25381 -3.663
rclavicle -1.21259e-014 0
rhumerus -19.5813 37.3561 -92.3113
rradius 93.5003
rwrist -53.315
rhand -28.0369 -4.38751
rfingers 7.12502
rthumb -1.42151 -34.3625
lclavicle -1.21259e-014 0
lhumerus -13.6474 -31.8772 85.0033
lradius 91.7415
lwrist -5.49521
lhand -46.5258 2.64009
lfingers 7.12502
lthumb -19.2514 31.7072
rfemur -10.3845 8.33837 16.6786
rtibia 28.4066
rfoot -23.6511 -26.1042
rtoes -28.6123
lfemur -11.6652 -13.5092 -14.2025
ltibia 27.6091
lfoot -18.1978 21.7155
ltoes -13.4886
